<svg width="330" height="128" viewBox="0 0 330 128" fill="none" xmlns="http://www.w3.org/2000/svg">
<path d="M16.7347 10.0942H0.958376V0.363022H44.0853V10.0942H28.309V53H16.7347V10.0942ZM45.3628 0.363022H55.8312V20.194H56.0523C57.3793 17.9824 59.0749 16.3851 61.1391 15.4022C63.2033 14.3701 65.2184 13.854 67.1843 13.854C69.9857 13.854 72.271 14.2472 74.0403 15.0336C75.8588 15.7708 77.2841 16.8274 78.3162 18.2036C79.3483 19.5305 80.0609 21.177 80.4541 23.1429C80.8964 25.0596 81.1176 27.1976 81.1176 29.5566V53H70.6492V31.4734C70.6492 28.328 70.1577 25.9934 69.1747 24.4699C68.1918 22.8972 66.447 22.1108 63.9405 22.1108C61.09 22.1108 59.0258 22.9709 57.7479 24.691C56.4701 26.3621 55.8312 29.1389 55.8312 33.0215V53H45.3628V0.363022ZM111.032 29.8515C110.54 27.1976 109.656 25.1825 108.378 23.8064C107.149 22.4303 105.257 21.7422 102.701 21.7422C101.03 21.7422 99.6295 22.0371 98.4991 22.6268C97.4178 23.1675 96.5332 23.8555 95.8451 24.691C95.2062 25.5265 94.7393 26.4112 94.4444 27.345C94.1987 28.2788 94.0512 29.1143 94.0021 29.8515H111.032ZM94.0021 36.4864C94.1495 39.8776 95.0096 42.335 96.5823 43.8586C98.1551 45.3821 100.416 46.1439 103.365 46.1439C105.478 46.1439 107.296 45.6279 108.82 44.5958C110.344 43.5145 111.277 42.3841 111.621 41.2046H120.837C119.362 45.7753 117.101 49.0436 114.054 51.0095C111.007 52.9754 107.321 53.9584 102.996 53.9584C99.9981 53.9584 97.295 53.4915 94.8867 52.5577C92.4785 51.5747 90.4389 50.1986 88.7679 48.4293C87.0969 46.66 85.7945 44.5466 84.8607 42.0893C83.976 39.6319 83.5337 36.9288 83.5337 33.9799C83.5337 31.1294 84.0006 28.4754 84.9344 26.018C85.8682 23.5606 87.1952 21.4473 88.9153 19.678C90.6355 17.8595 92.6751 16.4343 95.0342 15.4022C97.4424 14.3701 100.096 13.854 102.996 13.854C106.24 13.854 109.066 14.4929 111.474 15.7708C113.882 16.9995 115.848 18.6705 117.372 20.7838C118.944 22.8972 120.075 25.3054 120.763 28.0085C121.451 30.7116 121.697 33.5376 121.5 36.4864H94.0021ZM153.535 21.6685H165.257C167.321 21.6685 169.016 21.177 170.343 20.194C171.67 19.2111 172.334 17.6138 172.334 15.4022C172.334 14.1735 172.113 13.1659 171.67 12.3796C171.228 11.5932 170.638 10.9789 169.901 10.5366C169.164 10.0942 168.304 9.79934 167.321 9.6519C166.387 9.45531 165.404 9.35702 164.372 9.35702H153.535V21.6685ZM141.961 0.363022H166.731C169.238 0.363022 171.523 0.584186 173.587 1.02651C175.651 1.46884 177.421 2.20605 178.895 3.23815C180.369 4.2211 181.5 5.54808 182.286 7.2191C183.122 8.89012 183.539 10.9543 183.539 13.4117C183.539 16.0657 182.925 18.2773 181.696 20.0466C180.517 21.8159 178.748 23.2658 176.388 24.3962C179.632 25.33 182.04 26.9764 183.613 29.3355C185.235 31.6454 186.046 34.4468 186.046 37.7397C186.046 40.3937 185.53 42.7036 184.498 44.6695C183.466 46.5863 182.065 48.159 180.296 49.3877C178.576 50.6163 176.585 51.5256 174.324 52.1153C172.113 52.7051 169.827 53 167.468 53H141.961V0.363022ZM153.535 44.006H165.92C167.05 44.006 168.132 43.9077 169.164 43.7111C170.196 43.4654 171.105 43.0968 171.891 42.6053C172.678 42.0647 173.292 41.352 173.734 40.4674C174.226 39.5827 174.472 38.4523 174.472 37.0762C174.472 34.3731 173.71 32.4563 172.186 31.326C170.663 30.1464 168.648 29.5566 166.141 29.5566H153.535V44.006ZM189.076 14.8861H199.028V21.9634H199.176C199.667 20.7838 200.331 19.7026 201.166 18.7196C202.002 17.6875 202.96 16.8274 204.041 16.1394C205.123 15.4022 206.278 14.837 207.506 14.4438C208.735 14.0506 210.013 13.854 211.34 13.854C212.028 13.854 212.79 13.9769 213.625 14.2226V23.9538C213.134 23.8555 212.544 23.7818 211.856 23.7327C211.168 23.6344 210.504 23.5852 209.865 23.5852C207.949 23.5852 206.327 23.9047 205 24.5436C203.673 25.1825 202.592 26.0672 201.756 27.1976C200.97 28.2788 200.405 29.5566 200.06 31.0311C199.716 32.5055 199.544 34.1028 199.544 35.8229V53H189.076V14.8861ZM222.036 33.9799C222.036 35.5035 222.184 37.0025 222.479 38.4769C222.774 39.9022 223.265 41.2046 223.953 42.3841C224.69 43.5145 225.649 44.4238 226.828 45.1118C228.008 45.7999 229.482 46.1439 231.251 46.1439C233.021 46.1439 234.495 45.7999 235.675 45.1118C236.903 44.4238 237.862 43.5145 238.55 42.3841C239.287 41.2046 239.803 39.9022 240.098 38.4769C240.393 37.0025 240.54 35.5035 240.54 33.9799C240.54 32.4563 240.393 30.9573 240.098 29.4829C239.803 28.0085 239.287 26.7061 238.55 25.5757C237.862 24.4453 236.903 23.5361 235.675 22.848C234.495 22.1108 233.021 21.7422 231.251 21.7422C229.482 21.7422 228.008 22.1108 226.828 22.848C225.649 23.5361 224.69 24.4453 223.953 25.5757C223.265 26.7061 222.774 28.0085 222.479 29.4829C222.184 30.9573 222.036 32.4563 222.036 33.9799ZM211.568 33.9799C211.568 30.9328 212.035 28.1805 212.969 25.7231C213.902 23.2166 215.229 21.1033 216.95 19.3831C218.67 17.6138 220.734 16.2622 223.142 15.3284C225.55 14.3455 228.253 13.854 231.251 13.854C234.249 13.854 236.953 14.3455 239.361 15.3284C241.818 16.2622 243.907 17.6138 245.627 19.3831C247.347 21.1033 248.674 23.2166 249.608 25.7231C250.542 28.1805 251.009 30.9328 251.009 33.9799C251.009 37.0271 250.542 39.7793 249.608 42.2367C248.674 44.6941 247.347 46.8074 245.627 48.5767C243.907 50.2969 241.818 51.6239 239.361 52.5577C236.953 53.4915 234.249 53.9584 231.251 53.9584C228.253 53.9584 225.55 53.4915 223.142 52.5577C220.734 51.6239 218.67 50.2969 216.95 48.5767C215.229 46.8074 213.902 44.6941 212.969 42.2367C212.035 39.7793 211.568 37.0271 211.568 33.9799ZM255.088 0.363022H265.556V28.5983L278.752 14.8861H291.137L276.762 28.8931L292.759 53H280.079L269.611 35.9704L265.556 39.8776V53H255.088V0.363022ZM318.43 29.8515C317.939 27.1976 317.054 25.1825 315.776 23.8064C314.548 22.4303 312.655 21.7422 310.1 21.7422C308.429 21.7422 307.028 22.0371 305.898 22.6268C304.816 23.1675 303.932 23.8555 303.244 24.691C302.605 25.5265 302.138 26.4112 301.843 27.345C301.597 28.2788 301.45 29.1143 301.401 29.8515H318.43ZM301.401 36.4864C301.548 39.8776 302.408 42.335 303.981 43.8586C305.554 45.3821 307.814 46.1439 310.763 46.1439C312.877 46.1439 314.695 45.6279 316.219 44.5958C317.742 43.5145 318.676 42.3841 319.02 41.2046H328.235C326.761 45.7753 324.5 49.0436 321.453 51.0095C318.406 52.9754 314.72 53.9584 310.395 53.9584C307.397 53.9584 304.694 53.4915 302.285 52.5577C299.877 51.5747 297.838 50.1986 296.166 48.4293C294.495 46.66 293.193 44.5466 292.259 42.0893C291.375 39.6319 290.932 36.9288 290.932 33.9799C290.932 31.1294 291.399 28.4754 292.333 26.018C293.267 23.5606 294.594 21.4473 296.314 19.678C298.034 17.8595 300.074 16.4343 302.433 15.4022C304.841 14.3701 307.495 13.854 310.395 13.854C313.638 13.854 316.464 14.4929 318.873 15.7708C321.281 16.9995 323.247 18.6705 324.77 20.7838C326.343 22.8972 327.473 25.3054 328.162 28.0085C328.85 30.7116 329.095 33.5376 328.899 36.4864H301.401ZM5.08677 60.363H42.0948V70.0942H16.661V82.2582H38.7037V91.2522H16.661V113H5.08677V60.363ZM54.7582 68.9884H44.2898V60.363H54.7582V68.9884ZM44.2898 74.8861H54.7582V113H44.2898V74.8861ZM59.61 60.363H70.0784V113H59.61V60.363ZM74.9302 74.8861H84.8088V80.0466H84.9563C86.3324 78.0807 87.9788 76.5571 89.8956 75.4759C91.8615 74.3946 94.0977 73.854 96.6042 73.854C99.0124 73.854 101.2 74.3209 103.165 75.2547C105.18 76.1885 106.704 77.835 107.736 80.194C108.867 78.523 110.39 77.0486 112.307 75.7708C114.273 74.4929 116.583 73.854 119.237 73.854C121.252 73.854 123.119 74.0998 124.839 74.5912C126.56 75.0827 128.034 75.8691 129.263 76.9503C130.491 78.0316 131.45 79.4568 132.138 81.2261C132.826 82.9463 133.17 85.0351 133.17 87.4924V113H122.702V91.3997C122.702 90.1218 122.652 88.9177 122.554 87.7873C122.456 86.6569 122.185 85.674 121.743 84.8385C121.301 84.003 120.637 83.3395 119.753 82.848C118.917 82.3565 117.762 82.1108 116.288 82.1108C114.813 82.1108 113.609 82.4057 112.675 82.9954C111.791 83.5361 111.078 84.2733 110.538 85.2071C110.046 86.0917 109.702 87.1238 109.505 88.3034C109.358 89.4338 109.284 90.5887 109.284 91.7683V113H98.8159V91.6208C98.8159 90.4904 98.7913 89.3846 98.7421 88.3034C98.693 87.173 98.4718 86.1409 98.0786 85.2071C97.7346 84.2733 97.1203 83.5361 96.2356 82.9954C95.4001 82.4057 94.1468 82.1108 92.4758 82.1108C91.9844 82.1108 91.3209 82.2337 90.4854 82.4794C89.699 82.676 88.9126 83.0937 88.1263 83.7327C87.3891 84.3224 86.7501 85.2071 86.2095 86.3866C85.6689 87.517 85.3986 89.016 85.3986 90.8836V113H74.9302V74.8861ZM193.737 107.029C191.673 109.683 189.388 111.55 186.881 112.631C184.375 113.663 181.843 114.18 179.288 114.18C175.258 114.18 171.621 113.491 168.377 112.115C165.182 110.69 162.479 108.749 160.268 106.291C158.056 103.834 156.36 100.959 155.181 97.666C154.001 94.3239 153.412 90.7362 153.412 86.9027C153.412 82.9709 154.001 79.334 155.181 75.9919C156.36 72.6008 158.056 69.6519 160.268 67.1454C162.479 64.6389 165.182 62.673 168.377 61.2477C171.621 59.8224 175.258 59.1098 179.288 59.1098C181.991 59.1098 184.596 59.5275 187.102 60.363C189.658 61.1494 191.943 62.3289 193.958 63.9016C196.023 65.4744 197.718 67.4157 199.045 69.7256C200.372 72.0356 201.183 74.6895 201.478 77.6875H190.42C189.732 74.7387 188.405 72.527 186.439 71.0526C184.473 69.5782 182.089 68.841 179.288 68.841C176.683 68.841 174.471 69.357 172.653 70.3891C170.834 71.3721 169.36 72.7236 168.23 74.4438C167.099 76.1148 166.264 78.0316 165.723 80.194C165.232 82.3565 164.986 84.5927 164.986 86.9027C164.986 89.1143 165.232 91.2768 165.723 93.3901C166.264 95.4543 167.099 97.3219 168.23 98.993C169.36 100.664 170.834 102.016 172.653 103.048C174.471 104.031 176.683 104.522 179.288 104.522C183.121 104.522 186.07 103.564 188.134 101.647C190.248 99.681 191.476 96.855 191.82 93.169H180.172V84.5436H202.289V113H194.917L193.737 107.029ZM206.402 86.6078C206.549 84.1504 207.163 82.1108 208.245 80.4889C209.326 78.8671 210.702 77.5646 212.373 76.5817C214.044 75.5988 215.912 74.9107 217.976 74.5175C220.089 74.0752 222.203 73.854 224.316 73.854C226.233 73.854 228.174 74.0015 230.14 74.2963C232.106 74.5421 233.9 75.0581 235.522 75.8445C237.143 76.6308 238.47 77.7367 239.503 79.1619C240.535 80.5381 241.051 82.3811 241.051 84.691V104.522C241.051 106.242 241.149 107.889 241.346 109.461C241.542 111.034 241.886 112.214 242.378 113H231.762C231.565 112.41 231.393 111.82 231.246 111.231C231.147 110.592 231.074 109.953 231.025 109.314C229.354 111.034 227.388 112.238 225.127 112.926C222.866 113.614 220.556 113.958 218.197 113.958C216.379 113.958 214.683 113.737 213.11 113.295C211.538 112.853 210.161 112.164 208.982 111.231C207.802 110.297 206.869 109.117 206.18 107.692C205.542 106.267 205.222 104.571 205.222 102.605C205.222 100.443 205.591 98.6735 206.328 97.2974C207.114 95.8721 208.097 94.7417 209.277 93.9062C210.505 93.0707 211.882 92.4563 213.405 92.0632C214.978 91.6208 216.551 91.2768 218.123 91.0311C219.696 90.7853 221.244 90.5887 222.768 90.4413C224.291 90.2939 225.643 90.0727 226.822 89.7778C228.002 89.4829 228.936 89.0652 229.624 88.5245C230.312 87.9348 230.631 87.0993 230.582 86.018C230.582 84.8876 230.386 84.003 229.992 83.3641C229.648 82.676 229.157 82.1599 228.518 81.8159C227.928 81.4227 227.216 81.177 226.38 81.0787C225.594 80.9313 224.734 80.8575 223.8 80.8575C221.736 80.8575 220.114 81.2999 218.934 82.1845C217.755 83.0692 217.067 84.5436 216.87 86.6078H206.402ZM230.582 94.3485C230.14 94.7417 229.575 95.0612 228.887 95.3069C228.248 95.5035 227.535 95.6755 226.749 95.8229C226.012 95.9704 225.225 96.0933 224.39 96.1916C223.554 96.2898 222.719 96.4127 221.883 96.5602C221.097 96.7076 220.31 96.9042 219.524 97.1499C218.787 97.3957 218.123 97.7397 217.534 98.182C216.993 98.5752 216.551 99.0913 216.207 99.7302C215.863 100.369 215.691 101.18 215.691 102.163C215.691 103.097 215.863 103.883 216.207 104.522C216.551 105.161 217.018 105.677 217.607 106.07C218.197 106.414 218.885 106.66 219.671 106.807C220.458 106.955 221.269 107.029 222.104 107.029C224.168 107.029 225.766 106.685 226.896 105.996C228.027 105.308 228.862 104.497 229.403 103.564C229.943 102.581 230.263 101.598 230.361 100.615C230.509 99.6319 230.582 98.8455 230.582 98.2557V94.3485ZM245.49 74.8861H255.442V80.194H255.664C256.991 77.9824 258.711 76.3851 260.824 75.4022C262.937 74.3701 265.1 73.854 267.312 73.854C270.113 73.854 272.398 74.2472 274.168 75.0336C275.986 75.7708 277.411 76.8274 278.443 78.2036C279.476 79.5305 280.188 81.177 280.581 83.1429C281.024 85.0596 281.245 87.1976 281.245 89.5566V113H270.776V91.4734C270.776 88.328 270.285 85.9934 269.302 84.4699C268.319 82.8972 266.574 82.1108 264.068 82.1108C261.217 82.1108 259.153 82.9709 257.875 84.691C256.597 86.3621 255.958 89.1389 255.958 93.0215V113H245.49V74.8861ZM303.271 104.006C304.745 104.006 306.048 103.711 307.178 103.121C308.308 102.532 309.242 101.745 309.979 100.762C310.717 99.7793 311.257 98.6735 311.601 97.4448C311.994 96.167 312.191 94.84 312.191 93.4639C312.191 91.8911 312.044 90.4167 311.749 89.0406C311.454 87.6153 310.962 86.3621 310.274 85.2808C309.586 84.1996 308.677 83.3395 307.547 82.7006C306.416 82.0616 304.991 81.7422 303.271 81.7422C301.796 81.7422 300.519 82.0371 299.437 82.6268C298.405 83.2166 297.521 84.0275 296.783 85.0596C296.095 86.0426 295.579 87.1976 295.235 88.5245C294.94 89.8024 294.793 91.1539 294.793 92.5792C294.793 93.9553 294.916 95.3315 295.161 96.7076C295.456 98.0346 295.923 99.2387 296.562 100.32C297.25 101.401 298.135 102.286 299.216 102.974C300.297 103.662 301.649 104.006 303.271 104.006ZM322.143 110.567C322.143 112.091 321.922 113.836 321.48 115.801C321.087 117.767 320.202 119.586 318.826 121.257C317.45 122.977 315.459 124.427 312.855 125.606C310.25 126.786 306.76 127.376 302.386 127.376C300.519 127.376 298.602 127.13 296.636 126.638C294.719 126.196 292.95 125.483 291.328 124.501C289.755 123.518 288.428 122.24 287.347 120.667C286.315 119.143 285.725 117.3 285.578 115.138H295.972C296.464 117.104 297.422 118.455 298.848 119.193C300.273 119.979 301.919 120.372 303.787 120.372C306.736 120.372 308.874 119.487 310.201 117.718C311.577 115.949 312.24 113.713 312.191 111.01V105.996H312.044C310.913 108.012 309.291 109.511 307.178 110.493C305.114 111.427 302.927 111.894 300.617 111.894C297.766 111.894 295.309 111.403 293.245 110.42C291.181 109.388 289.485 108.012 288.158 106.291C286.831 104.522 285.848 102.482 285.209 100.173C284.619 97.8134 284.324 95.3315 284.324 92.7267C284.324 90.2693 284.668 87.9102 285.357 85.6494C286.094 83.3395 287.15 81.3244 288.527 79.6043C289.903 77.835 291.598 76.4343 293.613 75.4022C295.678 74.3701 298.037 73.854 300.691 73.854C303.197 73.854 305.384 74.3209 307.252 75.2547C309.169 76.1885 310.766 77.7612 312.044 79.9729H312.191V74.8861H322.143V110.567Z" fill="#131AF9"/>
</svg>
